<svg xmlns="http://www.w3.org/2000/svg" viewBox="0 0 750 750" id="java-script">
  <path d="M493.81,127.87H256.19a74,74,0,0,0-74,77.81l14.12,277.73a20,20,0,0,0,7.34,14.5l138.1,112.41a52.82,52.82,0,0,0,66.59-.11L545.52,497.87a20,20,0,0,0,7.3-14.4L567.76,205.9a74.05,74.05,0,0,0-73.95-78Zm34,75.88L513.35,472.51,383,579.27a12.69,12.69,0,0,1-16,0L235.84,472.5,222.18,203.65a34.05,34.05,0,0,1,34-35.78H493.81a34,34,0,0,1,34,35.88Z"></path>
  <path d="M335 232.26a20 20 0 00-20 20V438l-31.94-22.71a20 20 0 10-23.18 32.6L323.44 493A20 20 0 00355 476.74V252.26A20 20 0 00335 232.26zM480.92 259.5a20 20 0 00-15.07-37.06L384 255.74a20 20 0 00-12.47 18.52V396a20 20 0 0027.18 18.67l53.48-20.58-1.26 31-73.34 33.43a20 20 0 1016.59 36.39l84.53-38.53A20 20 0 00490.37 439l3-73.71a20 20 0 00-27.17-19.48l-54.7 21.05V287.72z"></path>
</svg>
